# xmcd
#
# Track frame offsets:
#  150
#  12743
#  32973
#  48723
#  70014
#  89598
#  104836
#  119477
#  143383
#  164924
#  180686
#  196528
#  210047
#  221921
#  240469
#  253470
#  277418
#  292108
#  309297
#  320805
#
# Disc length: 4459 seconds
#
# Revision: 0
# Processed by: cddbd v1.5.1PL0 Copyright (c) Steve Scherf et al.
# Submitted via: AltoMP3_Maker 3.0
#
DISCID=46116914
DTITLE=Smokey Road - The 1st Time
DYEAR=1900
DGENRE=
TTITLE0=Ridin' Life In The Fast Lane
TTITLE1=Chiseled In Stone
TTITLE2=I Could Never Do Nothing Right
TTITLE3=Crazy
TTITLE4=Walk Softly On This Heart Of Mine
TTITLE5=(Another) Blue Sunrise
TTITLE6=Cowgirl Up
TTITLE7=Mustang Sally
TTITLE8=Almost Home
TTITLE9=If You Look A Little Less
TTITLE10=Lilly's White Lies
TTITLE11=Right Where I Need To Be
TTITLE12=Tush
TTITLE13=When Did You Stop Loving Me
TTITLE14=Workin' On my Last Broken Heart
TTITLE15=The Closer You Get
TTITLE16=Little Liza Jane
TTITLE17=Two Sides Of The Road
TTITLE18=All The Way Home
TTITLE19=Smokey Road
EXTD=
EXTT0=
EXTT1=
EXTT2=
EXTT3=
EXTT4=
EXTT5=
EXTT6=
EXTT7=
EXTT8=
EXTT9=
EXTT10=
EXTT11=
EXTT12=
EXTT13=
EXTT14=
EXTT15=
EXTT16=
EXTT17=
EXTT18=
EXTT19=
PLAYORDER=
